<mxfile host="app.diagrams.net" agent="Mozilla/5.0 (Windows NT 10.0; Win64; x64) AppleWebKit/537.36 (KHTML, like Gecko) Chrome/136.0.0.0 Safari/537.36" version="26.1.1">
  <diagram name="Page-1" id="G21Yf6l4r8It-DQe4QRx">
    <mxGraphModel dx="2686" dy="1472" grid="1" gridSize="10" guides="1" tooltips="1" connect="1" arrows="1" fold="1" page="1" pageScale="1" pageWidth="1100" pageHeight="850" math="0" shadow="0">
      <root>
        <mxCell id="0" />
        <mxCell id="1" parent="0" />
        <mxCell id="Hsx_YLlvYiQbzOz1iNtJ-48" value="" style="rounded=1;whiteSpace=wrap;html=1;strokeColor=#0070F2;fillColor=#EBF8FF;arcSize=24;absoluteArcSize=1;imageWidth=64;imageHeight=64;strokeWidth=1.5;" vertex="1" parent="1">
          <mxGeometry x="200" y="180" width="630" height="420" as="geometry" />
        </mxCell>
        <mxCell id="Hsx_YLlvYiQbzOz1iNtJ-49" value="BTP" style="image;image=img/lib/sap/SAP_Logo.svg;editableCssRules=.*;part=1;verticalLabelPosition=middle;labelBackgroundColor=none;verticalAlign=middle;imageAspect=0;labelPosition=right;align=left;fontSize=16;fontStyle=1;spacingLeft=0;fontColor=#002A86;spacing=0;" vertex="1" parent="Hsx_YLlvYiQbzOz1iNtJ-48">
          <mxGeometry width="37" height="19" relative="1" as="geometry">
            <mxPoint x="20" y="20" as="offset" />
          </mxGeometry>
        </mxCell>
        <mxCell id="Hsx_YLlvYiQbzOz1iNtJ-50" value="Subaccount" style="rounded=1;whiteSpace=wrap;html=1;strokeColor=#475E75;fillColor=#ffffff;arcSize=24;absoluteArcSize=1;imageWidth=64;imageHeight=64;strokeWidth=1.5;part=1;verticalAlign=top;align=left;fontSize=16;fontStyle=1;spacingLeft=10;spacingTop=10;" vertex="1" parent="Hsx_YLlvYiQbzOz1iNtJ-48">
          <mxGeometry x="20" y="52.5" width="590" height="348.4090909090909" as="geometry" />
        </mxCell>
        <mxCell id="Hsx_YLlvYiQbzOz1iNtJ-36" value="" style="rounded=1;whiteSpace=wrap;html=1;strokeColor=#0070F2;fillColor=#EBF8FF;arcSize=32;absoluteArcSize=1;strokeWidth=1.5;" vertex="1" parent="Hsx_YLlvYiQbzOz1iNtJ-48">
          <mxGeometry x="50" y="109.77" width="292.91" height="240.23" as="geometry" />
        </mxCell>
        <mxCell id="Hsx_YLlvYiQbzOz1iNtJ-57" value="SAP Build Process Automation" style="text;html=1;align=left;verticalAlign=middle;resizable=0;points=[];autosize=1;strokeColor=none;fillColor=none;fontSize=16;fontColor=#000000;fontFamily=Helvetica;fontStyle=1;labelBorderColor=none;" vertex="1" parent="Hsx_YLlvYiQbzOz1iNtJ-48">
          <mxGeometry x="70" y="124.09090909090908" width="240" height="30" as="geometry" />
        </mxCell>
        <mxCell id="Hsx_YLlvYiQbzOz1iNtJ-59" value="" style="shape=image;verticalLabelPosition=bottom;verticalAlign=top;imageAspect=0;aspect=fixed;image=data:image/svg+xml,PHN2ZyB4bWxucz0iaHR0cDovL3d3dy53My5vcmcvMjAwMC9zdmciIGlkPSJzYXAtaW50ZWxsaWdlbnQtcm9ib3RpYy1wcm9jZXNzLWF1dG9tYXRpb24iIHZpZXdCb3g9IjcgNC4wMDAwMDA0NzY4MzcxNTggNDIgNDgiIHdpZHRoPSI0MiIgaGVpZ2h0PSI0OCI+PGRlZnM+PHN0eWxlPi5jbHMtMXtmaWxsOiMwNTNiNzA7fS5jbHMtMntmaWxsOiMwYTZlZDE7fTwvc3R5bGU+PC9kZWZzPjx0aXRsZT5zYXAtaW50ZWxsaWdlbnQtcm9ib3RpYy1wcm9jZXNzLWF1dG9tYXRpb248L3RpdGxlPjxwYXRoIGNsYXNzPSJjbHMtMSIgZD0iTTI4LDE1Ljk2MWM5LjkyNSwwLDE4LDcuNDEsMTgsMTYuNTE4UzM3LjkyNSw0OSwyOCw0OXMtMTgtNy40MS0xOC0xNi41MTgsOC4wNzUtMTYuNTE4LDE4LTE2LjUxOG0wLTNjLTExLjYsMC0yMSw4Ljc0LTIxLDE5LjUyMlMxNi40LDUyLDI4LDUyczIxLTguNzQsMjEtMTkuNTIxUzM5LjYsMTIuOTU3LDI4LDEyLjk1N1oiLz48cGF0aCBjbGFzcz0iY2xzLTIiIGQ9Ik0zNC44MSwyMy4zOTJIMjEuMTM3YTguMTcyLDguMTcyLDAsMCwwLDAsMTYuMzQ0SDM0LjgxYTguMTcyLDguMTcyLDAsMCwwLDAtMTYuMzQ0Wm0wLDEzLjM0MUgyMS4xMzdhNS4xNjksNS4xNjksMCwwLDEsMC0xMC4zMzhIMzQuODFhNS4xNjksNS4xNjksMCwwLDEsMCwxMC4zMzhaIi8+PHBhdGggY2xhc3M9ImNscy0yIiBkPSJNMjIuMTk0LDI4Ljc5MWEyLjU0NywyLjU0NywwLDEsMCwyLjU1LDIuNTQ3QTIuNTQ4LDIuNTQ4LDAsMCwwLDIyLjE5NCwyOC43OTFaIi8+PHBhdGggY2xhc3M9ImNscy0yIiBkPSJNMzMuODQxLDI4Ljc5MWEyLjU0NywyLjU0NywwLDEsMCwyLjU1LDIuNTQ3QTIuNTQ4LDIuNTQ4LDAsMCwwLDMzLjg0MSwyOC43OTFaIi8+PHBhdGggY2xhc3M9ImNscy0yIiBkPSJNMjcuMjE4LDkuODQ4djMuMTQ2Yy4yNjEtLjAwOS41MTgtLjAzNy43ODItLjAzNy4yNDIsMCwuNDc3LjAyNy43MTguMDM0VjkuODYxQTIuOTYsMi45NiwwLDAsMCwzMSw3YTMsMywwLDEsMC02LDBBMi45NjEsMi45NjEsMCwwLDAsMjcuMjE4LDkuODQ4WiIvPjwvc3ZnPg==;" vertex="1" parent="1">
          <mxGeometry x="490" y="400" width="42" height="48" as="geometry" />
        </mxCell>
      </root>
    </mxGraphModel>
  </diagram>
</mxfile>
